<svg viewBox="0 0 1920 1080" height="1080" width="1920" xmlns="http://www.w3.org/2000/svg" version="1.1"><g transform-origin="center" transform="scale(1, 1) rotate(0)"><rect x="0" y="0" width="1920" height="1080" fill="#002438"></rect><linearGradient id="linear-gradient-r0"><stop offset="0%" stop-color="#ff0005ff" stop-opacity="100%"></stop><stop offset="100%" stop-color="#ff0092ff" stop-opacity="100%"></stop></linearGradient><filter id="shadow-r0" x="0" width="100%" y="-20%" height="150%"><feDropShadow dx="0" dy="0" stdDeviation="10" flood-color="#00000061"></feDropShadow></filter><path d="M0 0 0,582.1651699813083 C 96,581.6603002008051 288,572.8229519790038 480,579.6408210787922 C 672,586.4586901785806 768,617.3507829029113 960,616.2545154802501 C 1152,615.1582480575889 1248,588.4835090590641 1440,574.1594839654863 C 1632,559.8354588719085 1824,550.5394088029861 1920,544.6343900123611 L1920 1080 L0 1080Z" fill="none" stroke-linecap="round" filter="url(#shadow-r0)" stroke-width="1" style="transition: all 0.4s cubic-bezier(0.16, 1, 0.3, 1) 0s; fill: url(&quot;#linear-gradient-r0&quot;);"></path><path d="M0 0 0,686.9817138711611 C 96,695.6605155070622 288,731.6750019590061 480,730.3757220506668 C 672,729.0764421423277 768,697.4619366625946 960,680.4853143294653 C 1152,663.508691996336 1248,674.4236037830512 1440,645.4926103850206 C 1632,616.56161698699 1824,557.7627999484539 1920,535.8303473393122 L1920 1080 L0 1080Z" fill="none" stroke-linecap="round" filter="url(#shadow-r0)" stroke-width="1" style="transition: all 0.4s cubic-bezier(0.16, 1, 0.3, 1) 0s; fill: url(&quot;#linear-gradient-r0&quot;);"></path><path d="M0 0 0,844.4969286210835 C 96.00000000000001,832.9597718355557 288,806.4403642661249 480,786.8111446934441 C 672,767.1819251207635 768,779.8022918741528 960,746.35083075768 C 1152,712.8993696412072 1248,637.78011021701 1440,619.5538391110798 C 1632,601.3275680051496 1824,648.0863480046391 1920,655.219475228029 L1920 1080 L0 1080Z" fill="none" stroke-linecap="round" filter="url(#shadow-r0)" stroke-width="1" style="transition: all 0.4s cubic-bezier(0.16, 1, 0.3, 1) 0s; fill: url(&quot;#linear-gradient-r0&quot;);"></path></g></svg>